<?xml version="1.0" standalone="no"?>
<svg xmlns:xlink="http://www.w3.org/1999/xlink" id="wave" style="transform:rotate(180deg); transition: 0.3s" viewBox="0 0 1440 100" version="1.1" xmlns="http://www.w3.org/2000/svg"><defs><linearGradient id="sw-gradient-0" x1="0" x2="0" y1="1" y2="0"><stop stop-color="rgba(255, 249, 234, 1)" offset="0%"/><stop stop-color="rgba(255, 249, 234, 1)" offset="100%"/></linearGradient></defs><path style="transform:translate(0, 0px); opacity:1" fill="url(#sw-gradient-0)" d="M0,50L26.7,45C53.3,40,107,30,160,31.7C213.3,33,267,47,320,58.3C373.3,70,427,80,480,75C533.3,70,587,50,640,50C693.3,50,747,70,800,73.3C853.3,77,907,63,960,50C1013.3,37,1067,23,1120,16.7C1173.3,10,1227,10,1280,23.3C1333.3,37,1387,63,1440,73.3C1493.3,83,1547,77,1600,65C1653.3,53,1707,37,1760,35C1813.3,33,1867,47,1920,56.7C1973.3,67,2027,73,2080,70C2133.3,67,2187,53,2240,45C2293.3,37,2347,33,2400,31.7C2453.3,30,2507,30,2560,33.3C2613.3,37,2667,43,2720,40C2773.3,37,2827,23,2880,26.7C2933.3,30,2987,50,3040,55C3093.3,60,3147,50,3200,40C3253.3,30,3307,20,3360,16.7C3413.3,13,3467,17,3520,23.3C3573.3,30,3627,40,3680,41.7C3733.3,43,3787,37,3813,33.3L3840,30L3840,100L3813.3,100C3786.7,100,3733,100,3680,100C3626.7,100,3573,100,3520,100C3466.7,100,3413,100,3360,100C3306.7,100,3253,100,3200,100C3146.7,100,3093,100,3040,100C2986.7,100,2933,100,2880,100C2826.7,100,2773,100,2720,100C2666.7,100,2613,100,2560,100C2506.7,100,2453,100,2400,100C2346.7,100,2293,100,2240,100C2186.7,100,2133,100,2080,100C2026.7,100,1973,100,1920,100C1866.7,100,1813,100,1760,100C1706.7,100,1653,100,1600,100C1546.7,100,1493,100,1440,100C1386.7,100,1333,100,1280,100C1226.7,100,1173,100,1120,100C1066.7,100,1013,100,960,100C906.7,100,853,100,800,100C746.7,100,693,100,640,100C586.7,100,533,100,480,100C426.7,100,373,100,320,100C266.7,100,213,100,160,100C106.7,100,53,100,27,100L0,100Z"/></svg>